<svg xmlns="http://www.w3.org/2000/svg" style="display: none;">
  <defs>
    <symbol id="katakana-project" viewBox="0 0 751 136">
        <path d="M464.47 31.4343C464.47 30.1565 465.207 29.4685 466.681 29.3703C468.155 29.272 470.17 29.7634 472.726 30.8445C475.085 31.8274 476.608 32.8103 477.296 33.7931C478.082 34.776 478.082 35.9063 477.296 37.184C476.51 38.3634 474.888 39.9852 472.431 42.0492C468.499 45.1943 466.534 47.0618 466.534 47.6515C466.534 48.1429 465.01 49.4206 461.963 51.4846C459.31 53.3521 457.835 54.6789 457.541 55.4652C457.246 56.2515 457.983 56.9395 459.752 57.5292C461.423 58.2172 462.504 59.0527 462.995 60.0355C463.585 61.0184 466.19 62.5418 470.809 64.6059C475.429 66.6699 482.309 70.6996 491.449 76.6951C499.41 81.7077 504.472 84.8528 506.634 86.1305C508.797 87.4082 511.303 88.4403 514.153 89.2265C517.102 90.1111 520.001 91.5363 522.852 93.502C525.702 95.3694 527.471 97.0403 528.159 98.5146C528.847 100.087 528.7 101.512 527.717 102.79C526.636 103.773 524.817 104.707 522.262 105.591C519.805 106.476 517.544 106.918 515.48 106.918C513.908 106.918 511.057 105.935 506.929 103.969C502.9 102.004 500.737 100.579 500.442 99.694C500.049 98.8094 498.378 97.3843 495.43 95.4186C492.481 93.4528 489.68 91.3397 487.026 89.0791C482.8 85.4425 478.721 82.3957 474.79 79.9385C470.858 77.3831 464.175 73.7465 454.739 69.0287C452.086 67.5544 450.66 66.1293 450.464 64.7533C450.267 63.279 449.825 62.5418 449.137 62.5418C448.252 62.5418 444.812 64.999 438.817 69.9133C432.822 74.7293 427.219 79.5945 422.01 84.5088C415.13 90.9957 410.117 95.0254 406.972 96.598C403.925 98.1706 401.419 99.5466 399.453 100.726C398.274 101.512 397.439 101.905 396.947 101.905C396.554 101.905 396.161 101.561 395.768 100.873C394.981 99.7923 395.375 98.3672 396.947 96.598C398.618 94.7306 402.795 91.094 409.479 85.6882C425.303 72.7145 438.424 61.1167 448.842 50.8949C459.261 40.5749 464.47 34.088 464.47 31.4343Z"/>
        <path d="M288.824 91.8803C292.067 90.1111 293.738 89.718 293.836 90.7008C293.836 90.9957 292.755 91.6345 290.593 92.6174C288.431 93.502 286.907 93.846 286.023 93.6494C285.826 93.6494 286.121 93.4528 286.907 93.0597C287.399 92.6665 288.038 92.2734 288.824 91.8803ZM325.386 3.71756C328.237 1.55526 330.251 0.375824 331.431 0.179255C332.709 -0.017321 334.92 0.474109 338.065 1.65355C348.189 5.38842 350.597 11.1873 345.289 19.0502C343.225 21.9988 342.193 24.4559 342.193 26.4217C342.193 29.5668 337.574 33.8423 328.335 39.248C321.75 43.0812 317.474 43.2286 315.509 39.6903L314.034 36.7417V39.3954C314.034 41.1646 313.346 44.064 311.97 48.0938C310.594 52.0252 309.906 54.2367 309.906 54.7281C309.808 56.7921 313.838 55.7601 321.995 51.6321C325.435 49.9612 328.925 47.9463 332.463 45.5875C337.082 42.6389 339.933 41.0172 341.014 40.7223C342.095 40.3292 343.373 39.4446 344.847 38.0686C346.026 37.0857 346.96 36.5943 347.648 36.5943C348.336 36.5943 350.105 37.0366 352.956 37.9211C356.297 39.1006 358.312 40.3783 359 41.7543C359.786 43.032 359.148 44.3589 357.084 45.7349C355.708 46.6195 354.233 47.7989 352.661 49.2732C351.088 50.6492 349.86 51.8778 348.975 52.9589C348.09 54.0401 347.746 54.6298 347.943 54.7281C348.434 55.3178 349.614 55.6127 351.481 55.6127C353.938 55.6127 355.658 56.0549 356.641 56.9395C357.722 57.8241 358.263 59.3967 358.263 61.6573V65.7853L362.833 65.0481C367.355 64.4584 371.925 64.9007 376.544 66.375C381.164 67.8493 383.473 69.6184 383.473 71.6825C383.473 72.3705 380.869 72.7636 375.66 72.8619C370.451 72.8619 366.175 73.4516 362.833 74.631C359.59 75.7122 357.673 77.2848 357.084 79.3488C356.396 81.2162 355.953 89.2265 355.757 103.38C355.56 121.661 354.872 131.981 353.693 134.34C352.906 135.912 351.334 136.453 348.975 135.962C346.714 135.372 345.289 133.111 344.7 129.18C344.11 125.347 344.208 119.302 344.994 111.046C345.682 105.345 346.125 98.8586 346.321 91.5854C346.518 84.3122 346.37 80.4299 345.879 79.9385C345.486 79.6436 342.783 80.6265 337.77 82.8871C334.232 84.4597 331.971 85.6882 330.989 86.5728C330.006 87.3591 329.023 88.9317 328.04 91.2905C326.566 94.7306 325.19 97.286 323.912 98.9569C322.733 100.529 321.111 103.92 319.047 109.129C316.983 114.24 315.066 117.68 313.297 119.45C312.118 120.826 310.791 121.71 309.317 122.103C307.941 122.398 306.958 122.103 306.368 121.219C305.975 120.531 307.793 116.108 311.823 107.95C315.853 99.7923 317.867 95.0254 317.867 93.6494C317.867 92.6666 317.573 92.1751 316.983 92.1751C315.607 92.1751 308.825 95.4186 296.638 101.905C293.001 103.773 290.298 104.952 288.529 105.444C286.76 105.935 284.45 106.279 281.6 106.476H274.966L274.818 103.232C274.621 100.972 274.916 99.3992 275.703 98.5146C276.686 97.2369 277.767 96.6963 278.946 96.8929C279.438 96.9911 279.487 97.3351 279.094 97.9249C278.111 99.4974 280.273 99.1043 285.58 96.7454C287.251 95.9591 289.217 95.0254 291.478 93.9443C298.063 90.6025 303.96 87.7522 309.169 85.3934C316.147 82.1499 318.408 79.7911 315.951 78.3168C314.87 77.6288 310.398 79.9385 302.535 85.2459C297.915 88.3911 295.409 89.7671 295.016 89.374C294.623 88.8825 294.918 88.342 295.9 87.7522C296.883 87.1625 299.39 85.3442 303.419 82.2974C307.449 79.2505 310.152 77.1865 311.528 76.1053C312.904 74.8276 315.558 72.5179 319.489 69.1762C322.438 66.6207 325.632 63.6721 329.072 60.3304C332.512 56.9887 334.232 55.1704 334.232 54.8755C334.232 54.6789 333.642 54.8755 332.463 55.4652C331.283 56.0549 329.318 57.0378 326.566 58.4138C323.814 59.6915 320.177 61.559 315.656 64.0161L308.874 67.7019L306.81 65.343C305.434 63.7704 304.255 61.5098 303.272 58.5612C302.289 55.6127 302.142 53.7452 302.83 52.9589C303.518 52.1726 304.353 49.6172 305.336 45.2926C306.417 40.8697 306.958 37.6754 306.958 35.7097C306.958 33.5474 305.778 31.336 303.419 29.0754C300.864 26.8148 299.734 24.9965 300.028 23.6205C300.323 22.1462 301.994 20.5245 305.041 18.7553C308.579 16.593 312.019 14.185 315.361 11.5313L325.386 3.71756ZM332.168 10.057C332.168 9.4673 331.873 9.17244 331.283 9.17244C330.399 9.17244 328.384 10.401 325.239 12.8582C322.094 15.217 319.735 17.4285 318.162 19.4925C315.705 22.2445 313.297 24.7017 310.938 26.864L307.547 30.2548L310.496 33.3508C312.363 35.3166 313.592 36.2011 314.182 36.0046C314.771 35.808 314.968 34.5303 314.771 32.1714C314.575 30.2057 314.624 28.9771 314.919 28.4857C315.214 27.896 316.049 27.3554 317.425 26.864C319.489 26.1759 321.357 25.1931 323.027 23.9154C324.403 22.6376 326.271 20.2296 328.63 16.6913C330.989 13.0547 332.168 10.8433 332.168 10.057ZM342.783 55.6127C341.997 55.6127 339.392 57.2344 334.969 60.4778C330.546 63.623 326.713 66.6207 323.47 69.471L318.457 73.7465L321.258 76.2528L324.059 78.6116L333.495 75.2207C339.982 72.8619 343.913 71.3384 345.289 70.6504C347.845 69.2744 347.992 66.4241 345.732 62.0995C344.749 60.2321 344.257 58.7087 344.257 57.5292C344.257 56.2515 343.766 55.6127 342.783 55.6127Z"/>
        <path d="M195.149 11.2365C193.674 9.27074 193.232 8.23873 193.822 8.14044C193.92 8.04215 194.313 7.99301 195.001 7.99301C196.377 7.99301 198.638 8.82844 201.783 10.4993C205.026 12.0719 207.14 13.3496 208.123 14.3325C208.909 15.5119 209.105 17.5759 208.712 20.5245C208.319 22.9817 208.467 24.6525 209.155 25.5371C209.941 26.3234 211.71 27.0114 214.462 27.6011C216.821 28.0925 218.688 28.928 220.064 30.1074C221.539 31.2868 222.276 32.6628 222.276 34.2354C222.276 36.1029 221.686 37.2823 220.507 37.7737C219.72 37.9703 218.492 38.7074 216.821 39.9852C215.248 41.2629 213.872 42.4915 212.693 43.6709C211.513 44.8503 211.022 45.5875 211.219 45.8823C211.808 46.3738 214.904 46.8161 220.507 47.2092C226.207 47.6023 230.335 48.7326 232.891 50.6001C235.544 52.3692 237.903 53.6961 239.967 54.5807C242.031 55.4652 243.063 56.6938 243.063 58.2664C243.063 62.0996 240.557 63.1807 235.544 61.5098C233.087 60.7235 229.303 60.527 224.192 60.9201C219.18 61.215 215.199 61.903 212.251 62.9841L208.417 64.6059L207.68 83.0345C206.599 109.867 205.42 124.462 204.142 126.821C203.749 127.804 203.257 128.344 202.668 128.443C202.176 128.541 201.193 128.394 199.719 128C197.557 127.312 196.082 126.919 195.296 126.821C192.937 126.231 192.79 124.855 194.854 122.693C195.837 121.612 196.426 119.794 196.623 117.238C196.82 114.683 196.918 107.065 196.918 94.3866C196.918 77.0882 196.476 68.2916 195.591 67.9967C194.51 67.5053 191.561 68.3407 186.745 70.503C181.929 72.6653 177.85 74.8768 174.509 77.1373C166.154 82.7397 160.552 86.0814 157.702 87.1625C154.95 88.2437 152.935 87.9488 151.657 86.278C150.969 85.3934 150.478 83.2802 150.183 79.9385C149.888 76.5968 150.035 74.5328 150.625 73.7465C150.92 73.0585 152.984 72.3705 156.817 71.6825C161.24 70.8962 164.975 69.5202 168.022 67.5544C171.167 65.5887 175.639 61.8047 181.438 56.2024C189.497 48.4378 192.446 44.8995 190.284 45.5875C189.497 45.7841 188.023 46.5703 185.861 47.9463C183.895 49.3224 182.568 50.0595 181.88 50.1578C181.29 50.2561 180.357 49.9612 179.079 49.2732C177.31 48.2903 175.786 45.9806 174.509 42.344C173.722 39.8869 173.28 38.0686 173.182 36.8892C173.083 35.6114 173.28 33.8423 173.771 31.5817C174.754 28.0434 175 24.7508 174.509 21.7039L173.771 17.1336L176.573 18.3131C178.735 19.0993 180.652 20.6228 182.322 22.8834C184.092 25.144 185.222 27.3554 185.713 29.5177C185.812 30.6971 186.008 31.5817 186.303 32.1714C186.696 32.7611 187.089 33.0068 187.482 32.9086C188.367 32.5154 190.185 31.9257 192.937 31.1394C195.689 30.2548 197.409 29.272 198.097 28.1908C198.785 26.8148 198.785 24.1119 198.097 20.0822C197.409 15.9542 196.426 13.0056 195.149 11.2365ZM216.526 50.3052C215.838 49.6172 214.413 49.1258 212.251 48.8309C210.776 48.6343 209.892 48.6343 209.597 48.8309C209.302 49.0275 209.155 49.7155 209.155 50.8949C209.155 52.0744 209.351 52.8115 209.744 53.1064C210.137 53.3029 211.219 53.2047 212.988 52.8115C215.838 52.3201 217.263 51.8286 217.263 51.3372C217.263 51.1406 217.017 50.7966 216.526 50.3052ZM195.591 56.9395C196.574 56.2515 197.065 55.8584 197.065 55.7601C197.065 55.6618 196.574 55.6127 195.591 55.6127C194.215 55.6127 192.839 56.055 191.463 56.9395C190.578 57.7258 190.136 58.1681 190.136 58.2664C190.136 58.3647 190.628 58.4138 191.61 58.4138C192.986 58.4138 194.313 57.9224 195.591 56.9395Z"/>
        <path d="M54.0013 36.5943C55.9671 33.6457 57.2448 32.5154 57.8345 33.2034C58.0311 33.4983 58.2276 33.8914 58.4242 34.3828C58.9157 35.5623 59.1122 39.592 59.0139 46.472C59.0139 53.2538 58.7682 56.9395 58.2768 57.5292C57.5888 58.5121 56.3602 59.2493 54.5911 59.7407C52.9202 60.2321 51.5442 60.2813 50.463 59.8881C48.2025 58.6104 46.9247 56.055 46.6299 52.2218C46.4333 48.2903 47.3179 45.1943 49.2836 42.9337C50.7579 41.2629 52.3305 39.1497 54.0013 36.5943ZM80.9809 16.249C81.0792 16.0525 81.5706 16.2982 82.4552 16.9862C83.3398 17.6742 84.2735 18.6079 85.2563 19.7874C86.2392 20.9668 87.0746 22.0479 87.7627 23.0308C88.2541 23.8171 89.1878 24.1611 90.5638 24.0628C91.9398 23.9645 95.3798 23.2765 100.884 21.9988L113.12 19.3451L118.133 21.5565C120.197 22.4411 121.622 23.2765 122.409 24.0628C123.293 24.8491 123.981 25.9302 124.473 27.3062C125.554 30.2548 125.013 33.0068 122.851 35.5623C120.787 38.1177 117.199 40.2309 112.088 41.9017C109.336 42.7863 107.322 43.6709 106.044 44.5555C104.766 45.44 103.538 45.8823 102.358 45.8823C98.525 45.8823 95.5273 48.2903 93.365 53.1064C91.7924 56.3498 90.2198 58.7578 88.6472 60.3304C87.1729 61.7064 86.4358 62.7384 86.4358 63.4264C86.4358 64.1144 87.2221 65.0481 88.7947 66.2276C90.8587 67.8984 91.6449 69.3727 91.1535 70.6504C90.7604 71.8299 89.0404 73.3042 85.9935 75.0733C81.0792 77.8253 78.3272 80.2334 77.7374 82.2974C77.5409 83.1819 77.9832 83.6242 79.0643 83.6242C80.2438 83.7225 82.1603 83.1328 84.8141 81.8551C88.1558 80.2825 91.8907 78.9556 96.0187 77.8745C100.147 76.6951 103.587 76.1053 106.339 76.1053C108.698 76.1053 111.548 76.7933 114.89 78.1693C118.231 79.5453 120.738 81.0196 122.409 82.5922C125.259 85.1477 126.881 88.4894 127.274 92.6174C127.765 96.6471 126.93 100.235 124.767 103.38C121.426 107.901 118.575 110.997 116.217 112.668C113.858 114.339 110.663 115.371 106.634 115.764C105.749 115.862 104.963 116.354 104.275 117.238C103.587 118.024 102.8 119.45 101.916 121.514C100.835 124.167 99.557 126.33 98.0827 128C96.7067 129.77 95.429 130.654 94.2495 130.654C93.6598 130.654 93.365 128.148 93.365 123.135C93.365 119.99 93.2175 117.877 92.9227 116.796C92.7261 115.616 92.1364 114.584 91.1535 113.7C89.8758 112.619 88.2049 111.046 86.1409 108.982C84.7649 107.508 83.8312 106.721 83.3398 106.623C82.9466 106.525 82.4552 106.918 81.8655 107.803C80.9809 108.982 80.2929 111.095 79.8015 114.142C79.31 117.779 77.7374 119.597 75.0837 119.597C74.494 119.597 73.6094 117.582 72.43 113.552C71.3488 109.523 70.4151 107.508 69.6288 107.508C68.8426 107.508 66.7294 108.343 63.2894 110.014C59.9477 111.587 57.3922 112.373 55.6231 112.373C53.9522 112.373 52.4779 111.587 51.2002 110.014C49.8242 108.343 48.8905 106.181 48.399 103.527C48.0059 100.873 48.2025 98.8094 48.9888 97.3352C49.775 95.8609 52.3796 93.1088 56.8025 89.0791C63.9774 82.2974 68.302 77.9236 69.7763 75.9579C71.2506 73.9922 72.3317 71.2893 73.0197 67.8493C73.806 63.5247 74.1009 60.9693 73.9043 60.183C73.806 59.3967 73.0197 59.0035 71.5454 59.0035C67.2208 59.0035 65.0585 57.3327 65.0585 53.9909C65.0585 52.0252 65.4025 51.0424 66.0905 51.0424C66.8768 51.0424 68.302 50.2069 70.366 48.5361C72.43 46.7669 73.9043 45.8823 74.7889 45.8823C75.6735 45.8823 76.4597 45.2435 77.1477 43.9657C77.934 42.688 78.3272 41.2629 78.3272 39.6903C78.3272 38.7074 78.0815 38.1177 77.59 37.9211C77.0986 37.7246 75.6243 37.8229 73.1672 38.216C70.9066 38.4126 69.3831 38.4126 68.5968 38.216C67.9088 38.0194 67.0734 37.3314 66.0905 36.152C63.9283 33.4 63.7317 31.9748 65.5008 31.8765C65.6974 31.7783 65.894 31.7291 66.0905 31.7291C67.3683 31.7291 68.2037 31.4343 68.5968 30.8445C68.99 30.2548 70.2677 29.8125 72.43 29.5177C75.3786 28.8297 77.3935 27.896 78.4746 26.7165C79.654 25.5371 80.2438 23.7679 80.2438 21.4091C80.2438 18.4605 80.4895 16.7405 80.9809 16.249ZM113.563 29.3703C113.563 29.0754 112.531 28.928 110.467 28.928C108.403 28.8297 105.896 28.8788 102.948 29.0754C99.9993 29.1737 97.4438 29.3211 95.2815 29.5177C93.6107 29.616 92.4312 29.96 91.7432 30.5497C91.0552 31.1394 90.2689 32.2206 89.3844 33.7931C87.8118 36.84 87.1238 39.1497 87.3204 40.7223C87.5169 42.1966 88.7455 43.2777 91.0061 43.9657C94.053 44.9486 97.3455 44.5555 100.884 42.7863C104.422 40.9189 107.764 37.9211 110.909 33.7931C112.678 31.2377 113.563 29.7634 113.563 29.3703ZM74.0517 87.4574C74.15 86.3762 73.7569 85.6391 72.8723 85.246C71.9877 84.8528 71.2506 85.1477 70.6608 86.1305C70.366 86.7202 68.4003 87.8997 64.7637 89.6688C59.6528 92.126 57.0974 95.1729 57.0974 98.8094C57.0974 100.579 59.7511 99.694 65.0585 96.1557C70.6608 92.5191 73.6586 89.6197 74.0517 87.4574ZM106.928 85.246C105.258 85.246 104.422 89.5214 104.422 98.0723C104.422 100.824 104.52 102.593 104.717 103.38C105.012 104.068 105.602 104.412 106.486 104.412C108.747 104.412 110.909 102.544 112.973 98.8094C115.037 94.9763 115.676 91.6345 114.89 88.7842C114.595 87.2117 113.415 86.2288 111.351 85.8357C109.287 85.4425 107.813 85.246 106.928 85.246ZM94.397 97.1877C94.397 92.1751 93.9547 89.0791 93.0701 87.8997C92.3821 86.9168 91.8907 86.4745 91.5958 86.5728C91.3009 86.5728 90.7604 87.1625 89.9741 88.342C88.8929 89.9145 88.3524 91.094 88.3524 91.8803C88.3524 92.6666 87.8118 94.0426 86.7306 96.0083C86.1409 97.4826 85.8952 98.4654 85.9935 98.9569C86.0918 99.4483 86.8781 100.382 88.3524 101.758C90.9078 104.019 92.5295 104.854 93.2175 104.264C94.0038 103.675 94.397 101.316 94.397 97.1877ZM42.9441 13.7428C44.2219 13.6445 45.991 13.9885 48.2516 14.7748C50.5122 15.561 52.1339 16.3473 53.1168 17.1336C53.9031 18.0182 54.1979 18.8536 54.0013 19.6399C53.8048 20.3279 52.7728 22.1462 50.9053 25.0948C48.1533 29.3211 44.3693 33.8914 39.5533 38.8057C35.2287 43.2286 32.6732 46.3246 31.887 48.0938C31.1007 49.8629 31.5921 51.2881 33.3612 52.3692C35.0321 53.5487 36.359 53.7452 37.3418 52.9589C38.1281 52.3692 38.5704 52.7132 38.6687 53.9909C38.6687 54.2858 38.6687 54.8755 38.6687 55.7601C38.5704 62.3453 39.3076 73.255 40.8801 88.4894C41.6664 95.9591 41.2733 100.677 39.7007 102.643C38.1281 104.608 33.8527 105.64 26.8744 105.739C23.7292 105.935 21.6652 105.935 20.6823 105.739C19.6995 105.542 19.208 105.1 19.208 104.412C19.208 103.429 17.7829 101.807 14.9326 99.5466C13.7532 98.662 12.7703 97.8266 11.984 97.0403C11.1977 96.254 10.8537 95.7626 10.952 95.566C11.2468 95.3694 12.8686 95.7626 15.8172 96.7454C18.864 97.8266 21.2229 98.3672 22.8938 98.3672C24.5646 98.2689 26.0881 97.5809 27.4641 96.3031C28.4469 95.3203 29.0858 94.2391 29.3806 93.0597C29.6755 91.8803 29.8229 89.2757 29.8229 85.246C29.8229 79.3488 29.5772 76.2036 29.0858 75.8105C28.9875 75.7122 28.6926 75.9088 28.2012 76.4002C27.8081 76.7933 27.2675 77.3831 26.5795 78.1693C25.9898 78.9556 25.4001 79.8402 24.8104 80.8231C22.2549 84.6562 19.4538 87.3591 16.4069 88.9317C13.4583 90.5043 10.8046 90.75 8.44569 89.6688C6.18511 88.4894 4.71082 86.0814 4.02281 82.4448C3.72796 80.8722 3.67881 79.9385 3.87538 79.6436C4.07195 79.3488 5.05482 79.2014 6.82397 79.2014C8.49483 79.2014 11.0503 78.0711 14.4903 75.8105C18.0286 73.4516 21.2229 70.7487 24.0732 67.7019C25.6458 65.8344 26.4812 64.5567 26.5795 63.8687C26.6778 63.1807 26.0881 62.2961 24.8104 61.215C23.4343 60.0355 22.5006 57.5292 22.0092 53.6961C21.8126 50.9441 21.7635 49.1258 21.8618 48.2412C22.0583 47.3566 22.8938 46.128 24.3681 44.5555C26.2355 42.688 29.0858 38.8057 32.919 32.9086C36.8504 26.9131 38.8161 23.5222 38.8161 22.7359C38.8161 22.1462 38.3738 21.8022 37.4893 21.7039C36.6047 21.6056 35.4744 21.7531 34.0984 22.1462C32.7224 22.4411 31.3464 22.9325 29.9704 23.6205C27.5132 24.8982 23.9749 27.4045 19.3555 31.1394C14.736 34.8743 12.0331 36.84 11.2468 37.0366C6.72568 37.6263 3.58053 37.2823 1.81138 36.0046C0.140517 34.6286 -0.350915 33.6948 0.337088 33.2034C0.631947 33.1051 1.17252 33.1543 1.95881 33.3508C4.80911 34.5303 10.5589 32.2697 19.208 26.5691C24.5155 23.2274 28.8401 20.7702 32.1818 19.1976C35.6218 17.6251 37.9807 16.3473 39.2584 15.3645C40.6344 14.2833 41.863 13.7428 42.9441 13.7428ZM75.2312 6.66614C75.2312 6.17471 75.9192 5.87985 77.2952 5.78157C78.7695 5.585 80.3912 5.585 82.1603 5.78157C84.0278 5.97814 85.4038 6.32214 86.2884 6.81358C87.8609 7.69815 88.9912 8.73015 89.6792 9.90959C90.9569 11.8753 89.9741 13.2513 86.7306 14.0376C84.2735 14.7256 81.5215 14.6765 78.4746 13.8902C77.59 13.6936 77.0003 13.3988 76.7054 13.0056C76.4106 12.6125 76.3614 11.9736 76.558 11.089C77.0494 9.41816 76.9512 8.38615 76.2632 7.99301C75.5752 7.59986 75.2312 7.15757 75.2312 6.66614Z"/>
</symbol>
    <symbol id="katakana-profile" viewBox="0 0 136 766">
        <path d="M71.0893 478.101C71.0893 476.797 71.8419 476.094 73.3471 475.994C74.8523 475.894 76.9094 476.395 79.5183 477.499C81.9266 478.503 83.482 479.506 84.1844 480.51C84.9871 481.513 84.9871 482.667 84.1844 483.971C83.3816 485.176 81.7259 486.831 79.2173 488.939C75.2035 492.15 73.1966 494.056 73.1966 494.658C73.1966 495.16 71.6413 496.464 68.5306 498.572C65.8212 500.478 64.3161 501.833 64.015 502.636C63.714 503.438 64.4666 504.141 66.2728 504.743C67.9787 505.445 69.0824 506.298 69.5842 507.302C70.1862 508.305 72.8454 509.861 77.5616 511.968C82.2778 514.075 89.302 518.189 98.6341 524.31C106.762 529.428 111.93 532.639 114.137 533.943C116.345 535.248 118.904 536.301 121.814 537.104C124.824 538.007 127.784 539.462 130.694 541.469C133.604 543.376 135.411 545.082 136.113 546.587C136.815 548.192 136.665 549.647 135.661 550.952C134.558 551.955 132.701 552.909 130.092 553.812C127.584 554.715 125.276 555.166 123.168 555.166C121.563 555.166 118.653 554.163 114.438 552.156C110.324 550.149 108.117 548.694 107.816 547.791C107.414 546.888 105.708 545.433 102.698 543.426C99.6877 541.419 96.8279 539.262 94.1185 536.954C89.8037 533.241 85.6394 530.13 81.6256 527.622C77.6118 525.013 70.7883 521.3 61.1552 516.483C58.4459 514.978 56.9909 513.523 56.7902 512.118C56.5895 510.613 56.1379 509.861 55.4355 509.861C54.5324 509.861 51.0203 512.369 44.8993 517.386C38.7782 522.303 33.0586 527.27 27.7403 532.288C20.7161 538.91 15.5985 543.025 12.3875 544.63C9.2768 546.236 6.718 547.64 4.7111 548.845C3.50696 549.647 2.65403 550.049 2.1523 550.049C1.75092 550.049 1.34954 549.697 0.948164 548.995C0.145403 547.891 0.546783 546.436 2.1523 544.63C3.85817 542.724 8.12283 539.011 14.9463 533.492C31.1019 520.246 44.4979 508.405 55.1345 497.97C65.7711 487.433 71.0893 480.811 71.0893 478.101Z"/>
        <path d="M27.2887 389.296C30.6001 387.49 32.306 387.088 32.4063 388.092C32.4063 388.393 31.3025 389.045 29.0949 390.049C26.8873 390.952 25.332 391.303 24.4289 391.102C24.2282 391.102 24.5292 390.901 25.332 390.5C25.8337 390.099 26.486 389.697 27.2887 389.296ZM64.6171 299.286C67.5271 297.079 69.5842 295.875 70.7883 295.674C72.0928 295.473 74.3506 295.975 77.5616 297.179C87.8971 300.992 90.3556 306.913 84.937 314.94C82.8297 317.951 81.7761 320.459 81.7761 322.466C81.7761 325.677 77.0599 330.042 67.6274 335.561C60.9043 339.475 56.5393 339.625 54.5324 336.013L53.0272 333.002V335.712C53.0272 337.518 52.3248 340.478 50.92 344.592C49.5152 348.606 48.8127 350.864 48.8127 351.365C48.7124 353.473 52.8265 352.419 61.1552 348.205C64.6673 346.499 68.2295 344.442 71.8419 342.033C76.5581 339.023 79.4682 337.367 80.5719 337.066C81.6757 336.665 82.9802 335.762 84.4854 334.357C85.6895 333.354 86.6428 332.852 87.3452 332.852C88.0477 332.852 89.8539 333.303 92.7639 334.206C96.1756 335.411 98.2327 336.715 98.9351 338.12C99.7379 339.424 99.0856 340.779 96.9784 342.184C95.5735 343.087 94.0684 344.291 92.4628 345.796C90.8573 347.201 89.603 348.455 88.6999 349.559C87.7968 350.663 87.4456 351.265 87.6463 351.365C88.148 351.968 89.3521 352.269 91.2587 352.269C93.7673 352.269 95.5234 352.72 96.5268 353.623C97.6306 354.526 98.1825 356.132 98.1825 358.44V362.654L102.849 361.902C107.464 361.3 112.13 361.751 116.847 363.256C121.563 364.762 123.921 366.568 123.921 368.675C123.921 369.377 121.262 369.779 115.944 369.879C110.625 369.879 106.26 370.481 102.849 371.685C99.5372 372.789 97.5804 374.395 96.9784 376.502C96.2759 378.408 95.8244 386.587 95.6237 401.036C95.423 419.7 94.7206 430.237 93.5165 432.645C92.7137 434.251 91.1082 434.802 88.6999 434.301C86.392 433.699 84.937 431.391 84.3349 427.377C83.7328 423.463 83.8332 417.292 84.6359 408.863C85.3383 403.043 85.7899 396.42 85.9906 388.995C86.1913 381.569 86.0407 377.606 85.539 377.104C85.1376 376.803 82.3782 377.806 77.2606 380.114C73.6481 381.72 71.3402 382.974 70.3368 383.877C69.3333 384.68 68.3299 386.286 67.3264 388.694C65.8212 392.206 64.4164 394.815 63.1119 396.521C61.9078 398.126 60.2521 401.588 58.1448 406.906C56.0376 412.124 54.0809 415.637 52.2746 417.443C51.0705 418.848 49.7158 419.751 48.2107 420.152C46.8058 420.453 45.8024 420.152 45.2003 419.249C44.7989 418.546 46.6553 414.031 50.7695 405.702C54.8836 397.374 56.9407 392.507 56.9407 391.102C56.9407 390.099 56.6397 389.597 56.0376 389.597C54.6328 389.597 47.7089 392.908 35.2662 399.531C31.5534 401.438 28.7939 402.642 26.9877 403.144C25.1815 403.645 22.8234 403.996 19.9134 404.197H13.1401L12.9896 400.886C12.7889 398.578 13.0899 396.972 13.8927 396.069C14.8961 394.765 15.9999 394.213 17.2041 394.414C17.7058 394.514 17.7559 394.865 17.3546 395.467C16.3511 397.073 18.5587 396.671 23.9773 394.263C25.6832 393.46 27.6901 392.507 29.998 391.403C36.7212 387.991 42.7419 385.081 48.0602 382.673C55.1847 379.362 57.4926 376.953 54.984 375.448C53.8802 374.746 49.3145 377.104 41.2869 382.523C36.5706 385.734 34.0118 387.138 33.6105 386.737C33.2091 386.235 33.5101 385.683 34.5136 385.081C35.517 384.479 38.0758 382.623 42.19 379.512C46.3041 376.402 49.0636 374.294 50.4684 373.191C51.8733 371.886 54.5826 369.528 58.5964 366.116C61.6067 363.507 64.8679 360.497 68.38 357.085C71.8921 353.673 73.6481 351.817 73.6481 351.516C73.6481 351.315 73.0461 351.516 71.8419 352.118C70.6378 352.72 68.6309 353.724 65.8212 355.128C63.0116 356.433 59.2988 358.339 54.6829 360.848L47.7591 364.611L45.6519 362.203C44.247 360.597 43.0429 358.289 42.0395 355.279C41.036 352.269 40.8855 350.362 41.5879 349.559C42.2903 348.757 43.1432 346.148 44.1467 341.732C45.2505 337.217 45.8024 333.956 45.8024 331.949C45.8024 329.741 44.5982 327.483 42.19 325.175C39.581 322.868 38.427 321.011 38.7281 319.606C39.0291 318.101 40.735 316.445 43.8457 314.639C47.4581 312.432 50.9702 309.973 54.3819 307.264L64.6171 299.286ZM71.5409 305.759C71.5409 305.157 71.2399 304.856 70.6378 304.856C69.7347 304.856 67.6776 306.11 64.4666 308.618C61.2555 311.027 58.8472 313.285 57.2417 315.392C54.7331 318.201 52.2746 320.71 49.8664 322.918L46.4045 326.38L49.4148 329.54C51.3214 331.547 52.5757 332.45 53.1778 332.25C53.7798 332.049 53.9805 330.745 53.7798 328.336C53.5791 326.329 53.6293 325.075 53.9303 324.573C54.2314 323.971 55.0843 323.419 56.4891 322.918C58.5964 322.215 60.5029 321.212 62.2088 319.907C63.6136 318.603 65.5202 316.144 67.9285 312.532C70.3367 308.819 71.5409 306.561 71.5409 305.759ZM82.3782 352.269C81.5754 352.269 78.9163 353.924 74.4007 357.236C69.8852 360.447 65.9717 363.507 62.6604 366.417L57.5428 370.782L60.4026 373.341L63.2624 375.749L72.8956 372.287C79.5183 369.879 83.5321 368.324 84.937 367.621C87.5459 366.217 87.6964 363.307 85.3885 358.891C84.3851 356.985 83.8833 355.429 83.8833 354.225C83.8833 352.921 83.3816 352.269 82.3782 352.269Z"/>
        <path d="M67.1759 156.445C65.6707 154.438 65.2191 153.385 65.8212 153.284C65.9216 153.184 66.3229 153.134 67.0254 153.134C68.4302 153.134 70.7381 153.987 73.9492 155.693C77.2605 157.298 79.418 158.603 80.4214 159.606C81.2242 160.81 81.4249 162.917 81.0235 165.928C80.6221 168.436 80.7726 170.142 81.475 171.045C82.2778 171.848 84.084 172.551 86.8937 173.153C89.302 173.654 91.2085 174.507 92.6133 175.711C94.1185 176.916 94.8711 178.32 94.8711 179.926C94.8711 181.833 94.269 183.037 93.0649 183.538C92.2621 183.739 91.0078 184.492 89.302 185.796C87.6964 187.101 86.2916 188.355 85.0875 189.559C83.8833 190.763 83.3816 191.516 83.5823 191.817C84.1844 192.319 87.3452 192.77 93.0649 193.172C98.8849 193.573 103.099 194.727 105.708 196.633C108.418 198.44 110.826 199.794 112.933 200.697C115.04 201.6 116.094 202.855 116.094 204.46C116.094 208.374 113.535 209.478 108.418 207.772C105.909 206.969 102.046 206.768 96.8278 207.17C91.7102 207.471 87.6463 208.173 84.6359 209.277L80.7225 210.933L79.9699 229.747C78.8661 257.141 77.6619 272.043 76.3574 274.451C75.9561 275.454 75.4543 276.006 74.8523 276.107C74.3505 276.207 73.3471 276.057 71.8419 275.655C69.6343 274.953 68.1292 274.551 67.3264 274.451C64.9181 273.849 64.7676 272.444 66.8748 270.236C67.8783 269.133 68.4804 267.276 68.681 264.667C68.8817 262.058 68.9821 254.282 68.9821 241.337C68.9821 223.676 68.5305 214.696 67.6274 214.394C66.5236 213.893 63.5133 214.746 58.5964 216.953C53.6795 219.161 49.5151 221.419 46.1034 223.727C37.5741 229.446 31.8544 232.858 28.9444 233.962C26.1347 235.066 24.0777 234.765 22.7732 233.059C22.0708 232.156 21.569 229.998 21.268 226.586C20.967 223.175 21.1175 221.067 21.7196 220.265C22.0206 219.562 24.1278 218.86 28.0413 218.157C32.5568 217.355 36.3699 215.95 39.4806 213.943C42.6917 211.936 47.2574 208.073 53.1777 202.353C61.406 194.426 64.4164 190.813 62.2088 191.516C61.406 191.716 59.9009 192.519 57.6933 193.924C55.6864 195.329 54.3317 196.082 53.6293 196.182C53.0272 196.282 52.0739 195.981 50.7695 195.279C48.9632 194.275 47.4079 191.917 46.1034 188.204C45.3007 185.696 44.8491 183.839 44.7488 182.635C44.6484 181.331 44.8491 179.525 45.3508 177.217C46.3543 173.604 46.6051 170.243 46.1034 167.132L45.3508 162.466L48.2107 163.67C50.4182 164.473 52.375 166.028 54.0808 168.336C55.8871 170.644 57.041 172.902 57.5427 175.109C57.6431 176.314 57.8438 177.217 58.1448 177.819C58.5462 178.421 58.9476 178.672 59.349 178.571C60.2521 178.17 62.1084 177.568 64.9181 176.765C67.7278 175.862 69.4838 174.859 70.1862 173.755C70.8886 172.35 70.8886 169.59 70.1862 165.476C69.4838 161.262 68.4804 158.251 67.1759 156.445ZM89.0009 196.332C88.2985 195.63 86.8435 195.128 84.6359 194.827C83.1307 194.627 82.2276 194.627 81.9266 194.827C81.6256 195.028 81.475 195.73 81.475 196.934C81.475 198.139 81.6757 198.891 82.0771 199.192C82.4785 199.393 83.5823 199.293 85.3885 198.891C88.2985 198.389 89.7535 197.888 89.7535 197.386C89.7535 197.185 89.5026 196.834 89.0009 196.332ZM67.6274 203.106C68.6309 202.403 69.1326 202.002 69.1326 201.902C69.1326 201.801 68.6309 201.751 67.6274 201.751C66.2226 201.751 64.8178 202.203 63.4129 203.106C62.5098 203.908 62.0583 204.36 62.0583 204.46C62.0583 204.561 62.56 204.611 63.5634 204.611C64.9683 204.611 66.3229 204.109 67.6274 203.106Z"/>
        <path d="M58.5964 31.8167C60.6033 28.8063 61.9078 27.6524 62.5098 28.3548C62.7105 28.6558 62.9112 29.0572 63.1119 29.5589C63.6136 30.7631 63.8143 34.8772 63.714 41.9014C63.714 48.8252 63.4631 52.5881 62.9614 53.1902C62.259 54.1936 61.0047 54.9462 59.1984 55.4479C57.4926 55.9497 56.0877 55.9998 54.984 55.5985C52.676 54.294 51.3715 51.685 51.0705 47.7715C50.8698 43.7577 51.7729 40.5969 53.7798 38.2889C55.285 36.5831 56.8905 34.4257 58.5964 31.8167ZM86.1411 11.0453C86.2414 10.8446 86.7432 11.0954 87.6463 11.7978C88.5494 12.5003 89.5026 13.4535 90.5061 14.6577C91.5095 15.8618 92.3625 16.9656 93.0649 17.9691C93.5666 18.7718 94.5199 19.123 95.9247 19.0227C97.3296 18.9223 100.842 18.2199 106.461 16.9154L118.954 14.2061L124.072 16.4639C126.179 17.367 127.634 18.2199 128.437 19.0227C129.34 19.8255 130.042 20.9292 130.544 22.3341C131.648 25.3444 131.096 28.1541 128.888 30.7631C126.781 33.372 123.118 35.5294 117.9 37.2353C115.091 38.1384 113.034 39.0415 111.729 39.9446C110.425 40.8477 109.17 41.2993 107.966 41.2993C104.053 41.2993 100.992 43.7577 98.7846 48.6747C97.179 51.986 95.5735 54.4445 93.968 56.05C92.4628 57.4548 91.7102 58.5085 91.7102 59.2109C91.7102 59.9133 92.513 60.8666 94.1185 62.0707C96.2258 63.7766 97.0285 65.2818 96.5268 66.5862C96.1254 67.7904 94.3694 69.2956 91.2587 71.1018C86.2414 73.9114 83.4318 76.3699 82.8297 78.4771C82.629 79.3802 83.0806 79.8318 84.1844 79.8318C85.3885 79.9321 87.3452 79.3301 90.0545 78.0256C93.4663 76.4201 97.2794 75.0654 101.494 73.9616C105.708 72.7575 109.22 72.1554 112.03 72.1554C114.438 72.1554 117.348 72.8578 120.76 74.2626C124.172 75.6675 126.731 77.1726 128.437 78.7782C131.347 81.3871 133.002 84.7989 133.404 89.0134C133.905 93.1275 133.052 96.7901 130.845 100.001C127.433 104.617 124.523 107.778 122.115 109.484C119.707 111.19 116.445 112.243 112.331 112.645C111.428 112.745 110.625 113.247 109.923 114.15C109.22 114.953 108.418 116.408 107.515 118.515C106.411 121.224 105.106 123.432 103.601 125.138C102.196 126.944 100.892 127.847 99.6877 127.847C99.0856 127.847 98.7846 125.288 98.7846 120.17C98.7846 116.959 98.634 114.802 98.333 113.698C98.1323 112.494 97.5302 111.44 96.5268 110.537C95.2223 109.434 93.5164 107.828 91.4092 105.721C90.0044 104.216 89.0511 103.413 88.5494 103.313C88.148 103.212 87.6463 103.614 87.0442 104.517C86.1411 105.721 85.4387 107.878 84.9369 110.989C84.4352 114.702 82.8297 116.558 80.1204 116.558C79.5183 116.558 78.6152 114.501 77.4111 110.387C76.3073 106.273 75.354 104.216 74.5512 104.216C73.7485 104.216 71.5911 105.069 68.079 106.774C64.6673 108.38 62.0583 109.183 60.2521 109.183C58.5462 109.183 57.041 108.38 55.7365 106.774C54.3317 105.069 53.3784 102.861 52.8767 100.152C52.4753 97.4423 52.676 95.3351 53.4788 93.8299C54.2815 92.3248 56.9407 89.5151 61.4562 85.4009C68.7814 78.4771 73.1966 74.0118 74.7017 72.0049C76.2069 69.998 77.3107 67.2385 78.0131 63.7264C78.8159 59.3112 79.1169 56.7022 78.9162 55.8995C78.8159 55.0967 78.0131 54.6954 76.508 54.6954C72.0928 54.6954 69.8852 52.9895 69.8852 49.5778C69.8852 47.5709 70.2364 46.5674 70.9388 46.5674C71.7416 46.5674 73.1966 45.7145 75.3038 44.0086C77.4111 42.2024 78.9162 41.2993 79.8193 41.2993C80.7225 41.2993 81.5252 40.647 82.2276 39.3426C83.0304 38.0381 83.4318 36.5831 83.4318 34.9776C83.4318 33.9741 83.1809 33.372 82.6792 33.1713C82.1775 32.9706 80.6723 33.071 78.1636 33.4724C75.8557 33.6731 74.3004 33.6731 73.4976 33.4724C72.7952 33.2717 71.9423 32.5693 70.9388 31.3651C68.7312 28.5555 68.5305 27.1005 70.3367 27.0001C70.5374 26.8998 70.7381 26.8496 70.9388 26.8496C72.2433 26.8496 73.0962 26.5486 73.4976 25.9465C73.899 25.3444 75.2035 24.8929 77.4111 24.5918C80.4214 23.8894 82.4785 22.9361 83.5823 21.732C84.7864 20.5279 85.3885 18.7216 85.3885 16.3134C85.3885 13.303 85.6394 11.547 86.1411 11.0453ZM119.405 24.4413C119.405 24.1403 118.352 23.9898 116.245 23.9898C114.137 23.8894 111.579 23.9396 108.568 24.1403C105.558 24.2406 102.949 24.3911 100.741 24.5918C99.0354 24.6922 97.8313 25.0434 97.1289 25.6455C96.4265 26.2475 95.6237 27.3513 94.7206 28.9568C93.1151 32.0675 92.4126 34.4257 92.6133 36.0312C92.814 37.5363 94.0683 38.6401 96.3763 39.3426C99.487 40.346 102.849 39.9446 106.461 38.1384C110.073 36.2319 113.485 33.1713 116.696 28.9568C118.502 26.3479 119.405 24.8427 119.405 24.4413ZM79.0668 83.7452C79.1671 82.6414 78.7657 81.8889 77.8626 81.4875C76.9595 81.0861 76.2069 81.3871 75.6049 82.3906C75.3038 82.9927 73.2969 84.1968 69.5842 86.003C64.3662 88.5116 61.7572 91.6223 61.7572 95.3351C61.7572 97.1413 64.4666 96.2382 69.8852 92.6258C75.6049 88.913 78.6654 85.9528 79.0668 83.7452ZM112.632 81.4875C110.926 81.4875 110.073 85.8525 110.073 94.5825C110.073 97.3922 110.174 99.1984 110.374 100.001C110.675 100.704 111.278 101.055 112.181 101.055C114.489 101.055 116.696 99.1482 118.803 95.3351C120.911 91.4216 121.563 88.0099 120.76 85.0999C120.459 83.4944 119.255 82.4909 117.148 82.0895C115.04 81.6882 113.535 81.4875 112.632 81.4875ZM99.8382 93.6794C99.8382 88.5618 99.3866 85.4009 98.4835 84.1968C97.7811 83.1933 97.2794 82.7418 96.9784 82.8421C96.6773 82.8421 96.1254 83.4442 95.3227 84.6484C94.2189 86.2539 93.667 87.458 93.667 88.2608C93.667 89.0635 93.1151 90.4684 92.0113 92.4753C91.4092 93.9804 91.1583 94.9839 91.2587 95.4856C91.359 95.9873 92.1618 96.9406 93.667 98.3454C96.2759 100.653 97.9316 101.506 98.634 100.904C99.4368 100.302 99.8382 97.8939 99.8382 93.6794ZM47.3076 8.48646C48.612 8.38612 50.4183 8.73732 52.7262 9.54008C55.0341 10.3428 56.6898 11.1456 57.6933 11.9484C58.496 12.8515 58.7971 13.7044 58.5964 14.5072C58.3957 15.2096 57.3421 17.066 55.4355 20.0763C52.6258 24.3911 48.7626 29.0572 43.8457 34.0744C39.4305 38.59 36.8215 41.7508 36.0187 43.5571C35.216 45.3633 35.7177 46.8183 37.5239 47.9221C39.2298 49.1262 40.5844 49.3269 41.5879 48.5241C42.3906 47.9221 42.8422 48.2733 42.9425 49.5778C42.9425 49.8788 42.9425 50.4809 42.9425 51.384C42.8422 58.1071 43.5948 69.2454 45.2003 84.7989C46.0031 92.4251 45.6017 97.2417 43.9962 99.2486C42.3907 101.255 38.0256 102.309 30.9011 102.409C27.6901 102.61 25.5829 102.61 24.5794 102.409C23.576 102.209 23.0742 101.757 23.0742 101.055C23.0742 100.051 21.6192 98.3956 18.7092 96.0877C17.5051 95.1846 16.5016 94.3317 15.6989 93.5289C14.8961 92.7261 14.5449 92.2244 14.6452 92.0237C14.9463 91.823 16.602 92.2244 19.6123 93.2279C22.723 94.3316 25.1313 94.8835 26.8372 94.8835C28.543 94.7832 30.0984 94.0808 31.5032 92.7763C32.5067 91.7729 33.1589 90.6691 33.4599 89.4649C33.761 88.2608 33.9115 85.6016 33.9115 81.4875C33.9115 75.4668 33.6606 72.2557 33.1589 71.8544C33.0586 71.754 32.7575 71.9547 32.2558 72.4564C31.8544 72.8578 31.3025 73.4599 30.6001 74.2626C29.998 75.0654 29.396 75.9685 28.7939 76.972C26.1849 80.8854 23.3251 83.6449 20.2144 85.2504C17.204 86.8559 14.4947 87.1068 12.0864 86.003C9.77851 84.7989 8.27333 82.3404 7.57092 78.6276C7.26988 77.0221 7.21971 76.0689 7.4204 75.7678C7.62109 75.4668 8.62454 75.3163 10.4308 75.3163C12.1366 75.3163 14.7456 74.1623 18.2577 71.8544C21.8701 69.4461 25.1313 66.6866 28.0413 63.5759C29.6468 61.6693 30.4998 60.3648 30.6001 59.6624C30.7005 58.96 30.0984 58.0569 28.7939 56.9531C27.3891 55.749 26.4358 53.1902 25.9341 49.2767C25.7334 46.4671 25.6832 44.6107 25.7835 43.7076C25.9842 42.8045 26.8372 41.5501 28.3423 39.9446C30.2489 38.0381 33.1589 34.0744 37.0724 28.0537C41.0862 21.9327 43.0931 18.4708 43.0931 17.668C43.0931 17.066 42.6415 16.7148 41.7384 16.6144C40.8353 16.5141 39.6813 16.6646 38.2765 17.066C36.8717 17.367 35.4668 17.8687 34.062 18.5711C31.5534 19.8756 27.941 22.4344 23.2247 26.2475C18.5085 30.0606 15.749 32.0675 14.9463 32.2682C10.3304 32.8703 7.11936 32.5191 5.31315 31.2146C3.60729 29.8098 3.10556 28.8565 3.80798 28.3548C4.10901 28.2544 4.66091 28.3046 5.46367 28.5053C8.37368 29.7094 14.2439 27.4015 23.0742 21.5815C28.4929 18.1698 32.908 15.6611 36.3198 14.0556C39.8319 12.4501 42.2401 11.1456 43.5446 10.1421C44.9494 9.03836 46.2038 8.48646 47.3076 8.48646ZM80.2709 1.26161C80.2709 0.759887 80.9733 0.458852 82.3781 0.358508C83.8833 0.157821 85.539 0.157821 87.3452 0.358508C89.2518 0.559196 90.6566 0.910405 91.5597 1.41214C93.1652 2.31524 94.3192 3.36886 95.0216 4.573C96.3261 6.5799 95.3227 7.98473 92.0113 8.78749C89.5026 9.48991 86.693 9.43974 83.5823 8.63698C82.6792 8.43629 82.0771 8.13525 81.7761 7.73387C81.475 7.33249 81.4249 6.68025 81.6256 5.77714C82.1273 4.07127 82.0269 3.01765 81.3245 2.61627C80.6221 2.21489 80.2709 1.76334 80.2709 1.26161Z"/>
</symbol>
  </defs>
</svg>
