<svg xmlns="http://www.w3.org/2000/svg" width="1600" height="1000" viewBox="0 0 1600 1000" role="img" aria-labelledby="title desc">
  <title id="title">KnowledgeOS vault structure</title>
  <desc id="desc">A sanitized dark interface mockup showing the KnowledgeOS Markdown vault folder structure and agent-maintained layers.</desc>
  <defs>
    <linearGradient id="bg" x1="0" y1="0" x2="1" y2="1"><stop offset="0" stop-color="#050505"/><stop offset="1" stop-color="#15100a"/></linearGradient>
    <radialGradient id="glow" cx="78%" cy="14%" r="60%"><stop offset="0" stop-color="#e8a838" stop-opacity="0.24"/><stop offset="1" stop-color="#e8a838" stop-opacity="0"/></radialGradient>
    <filter id="shadow" x="-20%" y="-20%" width="140%" height="140%"><feDropShadow dx="0" dy="22" stdDeviation="24" flood-color="#000" flood-opacity="0.45"/></filter>
    <style>
      .font{font-family:Inter,ui-sans-serif,-apple-system,BlinkMacSystemFont,"Segoe UI",sans-serif}.title{font-size:42px;font-weight:700;fill:#f7f7f7;letter-spacing:-.03em}.sub{font-size:18px;fill:#a1a1aa}.label{font-size:17px;font-weight:650;fill:#f4f4f5}.small{font-size:14px;fill:#a1a1aa}.tiny{font-size:12px;fill:#85858f}.gold{fill:#e8a838}.panel{fill:#101012;stroke:#2b2b31;stroke-width:1.2}.row{fill:#151518;stroke:#29292f;stroke-width:1}.row2{fill:#121215;stroke:#24242a;stroke-width:1}.pill{fill:rgba(232,168,56,.10);stroke:rgba(232,168,56,.40);stroke-width:1}.blue{fill:rgba(34,211,238,.08);stroke:rgba(34,211,238,.4)}.green{fill:rgba(52,211,153,.08);stroke:rgba(52,211,153,.4)}.violet{fill:rgba(167,139,250,.08);stroke:rgba(167,139,250,.4)}
    </style>
  </defs>
  <rect width="1600" height="1000" fill="url(#bg)"/><circle cx="1280" cy="130" r="410" fill="url(#glow)"/>
  <g class="font">
    <rect x="72" y="58" width="1456" height="884" rx="34" fill="rgba(255,255,255,.025)" stroke="rgba(255,255,255,.08)"/>
    <text x="118" y="132" class="title">以 Markdown 知识库作为真相来源</text>
    <text x="118" y="170" class="sub">脱敏后的 KnowledgeOS 结构：稳定目录、审查循环与编译知识页</text>

    <g filter="url(#shadow)">
      <rect x="118" y="230" width="410" height="620" rx="24" class="panel"/>
      <rect x="118" y="230" width="410" height="58" rx="24" fill="#171719"/>
      <circle cx="150" cy="259" r="7" fill="#ff5f57"/><circle cx="174" cy="259" r="7" fill="#ffbd2e"/><circle cx="198" cy="259" r="7" fill="#28c840"/>
      <text x="228" y="265" class="tiny">KnowledgeOS / 本地 Markdown 知识库</text>
      <g transform="translate(146 326)">
        <text y="0" class="small">▾ 00-inbox</text>
        <text y="38" class="small">▸ 01-self</text>
        <text y="76" class="small">▾ 02-projects</text>
        <rect x="-10" y="93" width="330" height="34" rx="8" class="pill"/><text x="18" y="116" class="small gold">knowledgeos.md</text>
        <text y="154" class="small">▾ 03-ai-workflows</text>
        <text y="192" class="small">▾ 04-product-ideas</text>
        <text y="230" class="small">▸ 05-ux-hfe</text>
        <text y="268" class="small">▸ 06-career</text>
        <text y="306" class="small">▸ 07-trading</text>
        <text y="344" class="small">▸ 08-learning</text>
        <text y="382" class="small">▾ 09-research</text>
        <text y="420" class="small">▾ 90-reviews</text>
        <text x="28" y="456" class="tiny">daily / weekly / audits</text>
      </g>
    </g>

    <g filter="url(#shadow)">
      <rect x="590" y="230" width="892" height="620" rx="24" class="panel"/>
      <text x="640" y="294" class="label">Agent 维护的知识层</text>
      <text x="640" y="326" class="small">知识库按未来工作需要检索什么来组织，而不是按笔记最初在哪里产生。</text>
      <g transform="translate(640 382)">
        <rect width="360" height="122" rx="18" class="row"/><text x="28" y="42" class="label">项目记忆</text><text x="28" y="75" class="small">当前状态、决策、证据、下一步</text>
        <rect x="412" width="360" height="122" rx="18" class="row2"/><text x="440" y="42" class="label">AI 工作流</text><text x="440" y="75" class="small">采集规则、自动化模式、流程</text>
        <rect y="160" width="360" height="122" rx="18" class="row2"/><text x="28" y="202" class="label">产品想法</text><text x="28" y="235" class="small">定位、策略和产品边界</text>
        <rect x="412" y="160" width="360" height="122" rx="18" class="row"/><text x="440" y="202" class="label">LLM Wiki + GBrain 层</text><text x="440" y="235" class="small">有源页面、实体记忆、关系</text>
        <rect y="320" width="772" height="122" rx="18" class="pill"/><text x="28" y="362" class="label">审查循环</text><text x="28" y="395" class="small">每日采集 → 每周综合 → 维护审计 → Git 备份</text>
      </g>
    </g>
  </g>
</svg>
