<svg xmlns="http://www.w3.org/2000/svg" width="1600" height="1000" viewBox="0 0 1600 1000" role="img" aria-labelledby="title desc">
  <title id="title">KnowledgeOS compiled truth layer</title>
  <desc id="desc">A sanitized dark mockup showing KnowledgeOS current judgment, evidence timeline, and relations sections.</desc>
  <defs>
    <linearGradient id="bg" x1="0" y1="0" x2="1" y2="1"><stop offset="0" stop-color="#050505"/><stop offset="1" stop-color="#16110a"/></linearGradient>
    <filter id="shadow" x="-20%" y="-20%" width="140%" height="140%"><feDropShadow dx="0" dy="22" stdDeviation="24" flood-color="#000" flood-opacity="0.45"/></filter>
    <style>.font{font-family:Inter,ui-sans-serif,-apple-system,BlinkMacSystemFont,"Segoe UI",sans-serif}.title{font-size:42px;font-weight:700;fill:#f7f7f7;letter-spacing:-.03em}.sub{font-size:18px;fill:#a1a1aa}.h{font-size:22px;font-weight:700;fill:#f7f7f7}.label{font-size:16px;font-weight:650;fill:#f4f4f5}.small{font-size:14px;fill:#a1a1aa}.tiny{font-size:12px;fill:#85858f}.gold{fill:#e8a838}.panel{fill:#101012;stroke:#2b2b31;stroke-width:1.2}.card{fill:#151518;stroke:#29292f;stroke-width:1}.accent{fill:rgba(232,168,56,.10);stroke:rgba(232,168,56,.42);stroke-width:1}.line{stroke:#e8a838;stroke-width:2;opacity:.65}</style>
  </defs>
  <rect width="1600" height="1000" fill="url(#bg)"/>
  <g class="font">
    <rect x="72" y="58" width="1456" height="884" rx="34" fill="rgba(255,255,255,.025)" stroke="rgba(255,255,255,.08)"/>
    <text x="118" y="132" class="title">从保存笔记到维护判断</text>
    <text x="118" y="170" class="sub">核心页面让最新综合保持可见，同时保留证据和关系。</text>

    <g filter="url(#shadow)">
      <rect x="126" y="238" width="1348" height="620" rx="26" class="panel"/>
      <rect x="126" y="238" width="1348" height="66" rx="26" fill="#171719"/>
      <text x="170" y="280" class="tiny">02-projects / knowledgeos.md · 脱敏页面结构</text>
      <text x="170" y="364" class="h">KnowledgeOS</text>
      <text x="170" y="397" class="small">Agent 维护的个人知识系统 · Markdown 优先 · 本地真相来源</text>

      <rect x="170" y="440" width="590" height="210" rx="20" class="accent"/>
      <text x="202" y="486" class="label gold">当前判断 / 编译判断</text>
      <text x="202" y="528" class="small">KnowledgeOS 已从笔记库变成运行中的个人基础设施。</text>
      <text x="202" y="560" class="small">下一步重点不是存更多信息，而是维护跨项目、</text>
      <text x="202" y="592" class="small">工作流、研究和职业上下文的当前判断。</text>

      <rect x="810" y="440" width="598" height="210" rx="20" class="card"/>
      <text x="838" y="498" class="label gold">参考模式</text>
      <text x="842" y="528" class="small">→ LLM Wiki：有源页面</text>
      <text x="842" y="560" class="small">→ GBrain：实体记忆 + 关系</text>
      <text x="842" y="592" class="small">→ Hermes Agent：工作流维护</text>
      <text x="842" y="624" class="small">→ 审查 / 审计 / 每周综合</text>

      <rect x="170" y="690" width="1238" height="124" rx="20" class="card"/>
      <text x="202" y="734" class="label">证据时间线</text>
      <line x1="224" y1="770" x2="1330" y2="770" class="line"/>
      <circle cx="280" cy="770" r="8" fill="#e8a838"/><text x="269" y="804" class="tiny">v0.1</text>
      <circle cx="575" cy="770" r="8" fill="#e8a838"/><text x="543" y="804" class="tiny">来源层</text>
      <circle cx="870" cy="770" r="8" fill="#e8a838"/><text x="832" y="804" class="tiny">编译判断</text>
      <circle cx="1165" cy="770" r="8" fill="#e8a838"/><text x="1127" y="804" class="tiny">审计 + 备份</text>
    </g>
  </g>
</svg>
